<svg width="32" height="32" viewBox="0 0 64 64" xmlns="http://www.w3.org/2000/svg">
  <rect width="64" height="64" rx="14" fill="#040B14"/>
  <polygon points="32,10 54,22 54,42 32,54 10,42 10,22" fill="#071220" stroke="#1a3d5c" stroke-width="1"/>
  <polygon points="32,18 46,26 46,38 32,46 18,38 18,26" fill="#3d1430"/>
  <polygon points="32,24 40,29 40,35 32,40 24,35 24,29" fill="#632148"/>
  <line x1="32" y1="10" x2="32" y2="24" stroke="#8a2f63" stroke-width="1.5"/>
  <line x1="54" y1="22" x2="40" y2="29" stroke="#8a2f63" stroke-width="1.5"/>
  <line x1="54" y1="42" x2="40" y2="35" stroke="#8a2f63" stroke-width="1.5"/>
  <line x1="32" y1="54" x2="32" y2="40" stroke="#8a2f63" stroke-width="1.5"/>
  <line x1="10" y1="42" x2="24" y2="35" stroke="#8a2f63" stroke-width="1.5"/>
  <line x1="10" y1="22" x2="24" y2="29" stroke="#8a2f63" stroke-width="1.5"/>
  <circle cx="32" cy="32" r="4" fill="#B18FA2"/>
</svg>
